<mxfile host="app.diagrams.net" modified="2022-09-27T07:43:58.268Z" agent="5.0 (Windows)" etag="86B1iPA8jYCCEcspKjBN" version="20.3.6" type="github">
  <diagram id="VmWLjgV0llTZg8-Zytga" name="Page-1">
    <mxGraphModel dx="1038" dy="564" grid="1" gridSize="10" guides="1" tooltips="1" connect="1" arrows="1" fold="1" page="1" pageScale="1" pageWidth="850" pageHeight="1100" math="0" shadow="0">
      <root>
        <mxCell id="0" />
        <mxCell id="1" parent="0" />
        <mxCell id="ZlQ0mgw5867p3Cx6t9TW-7" style="edgeStyle=orthogonalEdgeStyle;rounded=0;orthogonalLoop=1;jettySize=auto;html=1;exitX=1;exitY=0.5;exitDx=0;exitDy=0;entryX=0;entryY=0.5;entryDx=0;entryDy=0;entryPerimeter=0;fontSize=24;" parent="1" source="ZlQ0mgw5867p3Cx6t9TW-1" target="ZlQ0mgw5867p3Cx6t9TW-2" edge="1">
          <mxGeometry relative="1" as="geometry" />
        </mxCell>
        <mxCell id="ZlQ0mgw5867p3Cx6t9TW-15" style="edgeStyle=orthogonalEdgeStyle;rounded=0;orthogonalLoop=1;jettySize=auto;html=1;fontSize=24;" parent="1" source="ZlQ0mgw5867p3Cx6t9TW-1" target="ZlQ0mgw5867p3Cx6t9TW-4" edge="1">
          <mxGeometry relative="1" as="geometry" />
        </mxCell>
        <mxCell id="ZlQ0mgw5867p3Cx6t9TW-1" value="&lt;font style=&quot;font-size: 24px;&quot;&gt;228 server&lt;/font&gt;" style="ellipse;whiteSpace=wrap;html=1;" parent="1" vertex="1">
          <mxGeometry x="265" y="420" width="170" height="80" as="geometry" />
        </mxCell>
        <mxCell id="Mz-grNdkktWc0vMNRe-J-1" style="edgeStyle=orthogonalEdgeStyle;rounded=0;orthogonalLoop=1;jettySize=auto;html=1;entryX=1;entryY=0.367;entryDx=0;entryDy=0;entryPerimeter=0;" edge="1" parent="1" source="ZlQ0mgw5867p3Cx6t9TW-2" target="ZlQ0mgw5867p3Cx6t9TW-3">
          <mxGeometry relative="1" as="geometry">
            <mxPoint x="790" y="290" as="targetPoint" />
            <Array as="points">
              <mxPoint x="640" y="292" />
            </Array>
          </mxGeometry>
        </mxCell>
        <mxCell id="Mz-grNdkktWc0vMNRe-J-2" value="&lt;font style=&quot;font-size: 24px;&quot;&gt;download&lt;/font&gt;" style="edgeLabel;html=1;align=center;verticalAlign=middle;resizable=0;points=[];" vertex="1" connectable="0" parent="Mz-grNdkktWc0vMNRe-J-1">
          <mxGeometry x="0.1839" y="-2" relative="1" as="geometry">
            <mxPoint as="offset" />
          </mxGeometry>
        </mxCell>
        <mxCell id="ZlQ0mgw5867p3Cx6t9TW-2" value="oss store" style="shape=cylinder3;whiteSpace=wrap;html=1;boundedLbl=1;backgroundOutline=1;size=15;fontSize=24;" parent="1" vertex="1">
          <mxGeometry x="560" y="420" width="160" height="80" as="geometry" />
        </mxCell>
        <mxCell id="ZlQ0mgw5867p3Cx6t9TW-11" style="edgeStyle=orthogonalEdgeStyle;rounded=0;orthogonalLoop=1;jettySize=auto;html=1;entryX=0.559;entryY=0;entryDx=0;entryDy=0;entryPerimeter=0;fontSize=24;" parent="1" source="ZlQ0mgw5867p3Cx6t9TW-3" target="ZlQ0mgw5867p3Cx6t9TW-1" edge="1">
          <mxGeometry relative="1" as="geometry" />
        </mxCell>
        <mxCell id="ZlQ0mgw5867p3Cx6t9TW-3" value="data analysis" style="rounded=0;whiteSpace=wrap;html=1;fontSize=24;" parent="1" vertex="1">
          <mxGeometry x="300" y="270" width="120" height="60" as="geometry" />
        </mxCell>
        <mxCell id="ZlQ0mgw5867p3Cx6t9TW-4" value="monitor" style="rounded=1;whiteSpace=wrap;html=1;fontSize=24;" parent="1" vertex="1">
          <mxGeometry x="290" y="570" width="120" height="60" as="geometry" />
        </mxCell>
        <mxCell id="ZlQ0mgw5867p3Cx6t9TW-6" style="edgeStyle=orthogonalEdgeStyle;rounded=0;orthogonalLoop=1;jettySize=auto;html=1;entryX=0;entryY=0.5;entryDx=0;entryDy=0;fontSize=24;" parent="1" source="ZlQ0mgw5867p3Cx6t9TW-5" target="ZlQ0mgw5867p3Cx6t9TW-1" edge="1">
          <mxGeometry relative="1" as="geometry" />
        </mxCell>
        <mxCell id="ZlQ0mgw5867p3Cx6t9TW-5" value="CI输出" style="rounded=0;whiteSpace=wrap;html=1;fontSize=24;" parent="1" vertex="1">
          <mxGeometry x="80" y="430" width="120" height="60" as="geometry" />
        </mxCell>
        <mxCell id="ZlQ0mgw5867p3Cx6t9TW-8" value="upload" style="text;html=1;strokeColor=none;fillColor=none;align=center;verticalAlign=middle;whiteSpace=wrap;rounded=0;fontSize=24;" parent="1" vertex="1">
          <mxGeometry x="460" y="420" width="60" height="30" as="geometry" />
        </mxCell>
        <mxCell id="ZlQ0mgw5867p3Cx6t9TW-12" value="request" style="text;html=1;align=center;verticalAlign=middle;resizable=0;points=[];autosize=1;strokeColor=none;fillColor=none;fontSize=24;" parent="1" vertex="1">
          <mxGeometry x="360" y="350" width="100" height="40" as="geometry" />
        </mxCell>
      </root>
    </mxGraphModel>
  </diagram>
</mxfile>
